<?xml version="1.0" encoding="UTF-8"?><svg id="Layer_2" xmlns="http://www.w3.org/2000/svg" viewBox="0 0 223.2 36.08"><defs><style>.cls-1{fill:#2b4779;}.cls-2{fill:#d9a500;}</style></defs><g id="Layer_1-2"><path class="cls-1" d="M0,36.08V0h11.94c2.16,0,4.11.15,5.85.45,1.74.3,3.24.79,4.5,1.49,1.26.7,2.23,1.64,2.91,2.83.68,1.19,1.02,2.69,1.02,4.5,0,1.46-.27,2.7-.81,3.74-.54,1.04-1.33,1.86-2.37,2.47-1.04.61-2.34,1.02-3.9,1.22,1.92.24,3.51.74,4.77,1.49,1.26.76,2.2,1.75,2.82,2.96.62,1.22.93,2.69.93,4.41s-.29,3.24-.87,4.57c-.58,1.32-1.44,2.42-2.58,3.29-1.14.88-2.56,1.54-4.26,1.98-1.7.45-3.69.67-5.97.67H0ZM8.88,14.74h3c1.76,0,3.12-.19,4.08-.58.96-.39,1.63-.98,2.01-1.78.38-.8.57-1.81.57-3.03s-.29-2.26-.87-2.96c-.58-.7-1.45-1.17-2.61-1.42-1.16-.25-2.64-.38-4.44-.38h-1.74v10.16ZM8.88,31.44h3.36c2.68,0,4.5-.48,5.46-1.45.96-.96,1.44-2.46,1.44-4.48,0-1.45-.23-2.63-.69-3.54-.46-.91-1.22-1.58-2.28-2.03-1.06-.45-2.47-.67-4.23-.67h-3.06v12.16Z"/><path class="cls-1" d="M33.43,36.08V0h11.64c3.28,0,6.05.29,8.31.87,2.26.58,3.98,1.57,5.16,2.96,1.18,1.4,1.77,3.3,1.77,5.7,0,1.46-.18,2.76-.54,3.92-.36,1.16-.97,2.15-1.83,2.96-.86.82-2.05,1.45-3.57,1.89l6.78,17.77h-8.88l-5.88-16.52h-4.08v16.52h-8.88ZM42.31,15.41h2.76c1.72,0,3.09-.19,4.11-.56s1.75-.96,2.19-1.78c.44-.82.66-1.86.66-3.14,0-1.81-.45-3.17-1.35-4.08-.9-.91-2.61-1.36-5.13-1.36h-3.24v10.91Z"/><path class="cls-1" d="M67.34,36.08V0h8.76v36.08h-8.76Z"/><path class="cls-1" d="M81.14,36.08L90.86,0h9.48l9.72,36.08h-8.22l-1.92-8.33h-8.46l-1.98,8.33h-8.34ZM92.36,23.56h6.6l-3.3-15.14-3.3,15.14Z"/><path class="cls-1" d="M114.93,36.08V0h6.18l11.82,20.58V0h7.32v36.08h-5.88l-11.88-21.56v21.56h-7.56Z"/><path class="cls-2" d="M145.18,36.08L154.9,0h9.48l9.72,36.08h-8.22l-1.92-8.33h-8.46l-1.98,8.33h-8.34ZM156.4,23.56h6.6l-3.3-15.14-3.3,15.14Z"/><path class="cls-2" d="M179.21,36.08V0h8.76v36.08h-8.76Z"/><path class="cls-2" d="M195.47,36.08V0h11.64c3.28,0,6.05.29,8.31.87,2.26.58,3.98,1.57,5.16,2.96,1.18,1.4,1.77,3.3,1.77,5.7,0,1.46-.18,2.76-.54,3.92s-.97,2.15-1.83,2.96c-.86.82-2.05,1.45-3.57,1.89l6.78,17.77h-8.88l-5.88-16.52h-4.08v16.52h-8.88ZM204.35,15.41h2.76c1.72,0,3.09-.19,4.11-.56,1.02-.37,1.75-.96,2.19-1.78.44-.82.66-1.86.66-3.14,0-1.81-.45-3.17-1.35-4.08-.9-.91-2.61-1.36-5.13-1.36h-3.24v10.91Z"/></g></svg>