<?xml version="1.0" encoding="UTF-8"?><svg id="Layer_2" xmlns="http://www.w3.org/2000/svg" viewBox="0 0 52.19 52.19"><defs><style>.cls-1{fill:#2b4779;}.cls-2{fill:#f4ca35;}</style></defs><g id="Layer_1-2"><rect class="cls-1" width="52.19" height="52.19"/><path class="cls-2" d="M7.61,45.65V6.55h16.64c2.73,0,5.32.13,7.77.39,2.44.26,4.61.75,6.51,1.47,1.89.72,3.38,1.75,4.46,3.09,1.08,1.34,1.62,3.1,1.62,5.29,0,1.58-.38,2.9-1.14,3.98-.76,1.08-1.84,1.94-3.23,2.58-1.39.64-3.06,1.08-5.01,1.3,2.47.19,4.55.68,6.23,1.47,1.68.79,2.96,1.84,3.83,3.16.87,1.32,1.3,2.91,1.3,4.78,0,2.03-.43,3.77-1.3,5.24s-2.12,2.66-3.75,3.6c-1.63.93-3.64,1.63-6.03,2.08-2.39.45-5.14.68-8.24.68H7.61ZM21.73,22.19h2.76c2.16,0,3.79-.2,4.89-.6s1.85-.99,2.25-1.76c.39-.77.59-1.71.59-2.8,0-1.03-.3-1.89-.91-2.58-.61-.69-1.5-1.21-2.68-1.57-1.18-.35-2.67-.53-4.46-.53h-2.45v9.85ZM21.73,39.61h3c3.1,0,5.25-.48,6.43-1.45,1.18-.97,1.77-2.38,1.77-4.25,0-1.48-.26-2.65-.79-3.52-.53-.87-1.39-1.5-2.6-1.91-1.21-.4-2.84-.6-4.89-.6h-2.92v11.73Z"/></g></svg>