<?xml version="1.0" encoding="UTF-8"?><svg id="Layer_2" xmlns="http://www.w3.org/2000/svg" viewBox="0 0 82 82"><defs><style>.cls-1{fill:#ffd51b;}</style></defs><g id="Layer_1-2"><path class="cls-1" d="M56.84,51.67c-3.76,4.65-8.71,7.22-14.89,7.56-3.69.2-7.18-.58-10.42-2.28-3.27-1.71-5.85-4.11-7.68-7.21-2.55-4.36-3.16-8.98-1.9-13.83h-5.55v25.5c0,.12,0,.25.01.38.08.94.75,1.74,1.7,2.03.31.09.63.12.96.12,7.56,0,15.12,0,22.68,0,7.06,0,14.12,0,21.18,0,.23,0,.47,0,.69-.05,1.16-.23,1.96-1.16,1.96-2.29,0-1.54,0-3.07,0-4.6v-21.06h-5.53c1.42,5.72.37,10.97-3.22,15.75Z"/><path class="cls-1" d="M41,52.24c6.8,0,12.3-5.22,12.3-11.67s-5.5-11.68-12.3-11.68c-6.89.01-12.31,5.34-12.29,11.68.01,6.46,5.49,11.67,12.29,11.67Z"/><path class="cls-1" d="M61.77,0H20.23C9.06,0,0,9.06,0,20.23v41.53c0,11.18,9.06,20.23,20.23,20.23h41.53c11.18,0,20.23-9.06,20.23-20.23V20.23c0-11.18-9.06-20.23-20.23-20.23ZM71.59,59.98c0,5.94-4.99,10.81-11.1,10.81H21.5c-6.1,0-11.1-4.86-11.1-10.81V22.02c0-5.94,4.99-10.81,11.1-10.81h38.99c6.1,0,11.1,4.86,11.1,10.81v37.96Z"/><path class="cls-1" d="M63.1,17.21c-2.43,0-4.86,0-7.29,0-1.43,0-2.5,1.02-2.51,2.37,0,2.32,0,4.63,0,6.95,0,.11,0,.22.02.33.2,1.3,1.38,2.05,2.47,2.03,1.22-.02,2.43,0,3.65,0s2.43,0,3.65,0c.16,0,.32,0,.47-.03,1.22-.21,2.04-1.15,2.04-2.32,0-2.32,0-4.64,0-6.97,0-.13,0-.25-.03-.38-.21-1.18-1.21-1.97-2.47-1.97Z"/></g></svg>