<?xml version="1.0" encoding="UTF-8"?><svg id="Layer_2" xmlns="http://www.w3.org/2000/svg" viewBox="0 0 82 82"><defs><style>.cls-1{fill:#ffd51b;}</style></defs><g id="Layer_1-2"><path class="cls-1" d="M61.77,0H20.23C9.06,0,0,9.06,0,20.23v41.53c0,11.18,9.06,20.23,20.23,20.23h41.53c11.18,0,20.23-9.06,20.23-20.23V20.23c0-11.18-9.06-20.23-20.23-20.23ZM55.9,21.2h-7.21c-1.42,0-2.87,1.5-2.87,2.61v7.46h10.06c-.4,5.72-1.23,10.95-1.23,10.95h-8.88v29.94h-13.23v-29.94h-6.44v-10.91h6.44v-8.92c0-1.63-.33-12.55,13.55-12.55h9.8v11.36Z"/></g></svg>