<?xml version="1.0" encoding="UTF-8"?><svg id="Layer_2" xmlns="http://www.w3.org/2000/svg" viewBox="0 0 82 82"><defs><style>.cls-1{fill:#ffd51b;}</style></defs><g id="Layer_1-2"><path class="cls-1" d="M51.54,38.51l-18.95-12.84c-1.99-1.34-3.62-.24-3.62,2.46l.03,25.76c0,2.7,1.64,3.8,3.62,2.44l18.93-12.9c1.99-1.35,1.99-3.57,0-4.91Z"/><path class="cls-1" d="M61.77,0H20.23C9.06,0,0,9.06,0,20.23v41.53c0,11.18,9.06,20.23,20.23,20.23h41.53c11.18,0,20.23-9.06,20.23-20.23V20.23c0-11.18-9.06-20.23-20.23-20.23ZM74.92,56.16c0,6.37-4.45,11.54-9.93,11.54-7.83.41-15.83.57-23.99.55-8.16.02-16.17-.15-23.99-.55-5.48,0-9.93-5.17-9.93-11.54-.32-5.07-.47-10.11-.46-15.17,0-5.05.14-10.11.46-15.16,0-6.38,4.44-11.55,9.93-11.55,7.43-.37,15.04-.53,22.78-.53h2.43c7.75,0,15.34.16,22.78.53,5.48,0,9.93,5.17,9.93,11.55.33,5.05.48,10.11.46,15.16.01,5.06-.13,10.1-.46,15.17Z"/></g></svg>